<svg width="24" height="23" viewBox="0 0 24 23" fill="none" xmlns="http://www.w3.org/2000/svg">
<rect x="0.75" y="3.75" width="22.5" height="18.5" rx="1.25" stroke="#4762B2" stroke-width="1.5"/>
<rect x="0.75" y="3.75" width="22.5" height="4.5" rx="1.25" stroke="#4762B2" stroke-width="1.5"/>
<rect x="0.25" y="-0.25" width="2.5" height="5.5" rx="1.25" transform="matrix(1 0 0 -1 4 5.5)" fill="white" stroke="#4762B2" stroke-width="0.5"/>
<rect x="0.25" y="-0.25" width="2.5" height="5.5" rx="1.25" transform="matrix(1 0 0 -1 17 5.5)" fill="white" stroke="#4762B2" stroke-width="0.5"/>
<rect x="3.25" y="10.25" width="2.5" height="2.5" rx="0.75" stroke="#4762B2" stroke-width="0.5"/>
<rect x="8.25" y="10.25" width="2.5" height="2.5" rx="0.75" stroke="#4762B2" stroke-width="0.5"/>
<rect x="13.25" y="10.25" width="2.5" height="2.5" rx="0.75" stroke="#4762B2" stroke-width="0.5"/>
<rect x="18.25" y="10.25" width="2.5" height="2.5" rx="0.75" stroke="#4762B2" stroke-width="0.5"/>
<rect x="3.25" y="15.25" width="2.5" height="2.5" rx="0.75" stroke="#4762B2" stroke-width="0.5"/>
<rect x="8.25" y="15.25" width="2.5" height="2.5" rx="0.75" stroke="#4762B2" stroke-width="0.5"/>
</svg>
