<svg width="21" height="25" viewBox="0 0 21 25" fill="none" xmlns="http://www.w3.org/2000/svg">
<rect x="0.75" y="9.75" width="19.5" height="14.5" rx="1.25" fill="#4762B2" stroke="#4762B2" stroke-width="1.5"/>
<path d="M16 8C16 4.13401 13.3137 1 10 1C6.68629 1 4 4.13401 4 8" stroke="#4762B2" stroke-width="2"/>
<path d="M10.5 13C9.11929 13 8 14.1193 8 15.5C8 16.3178 8.39267 17.0439 8.99976 17.5L8.31054 20.2575C8.1528 20.8887 8.63015 21.5 9.2807 21.5H11.7193C12.3698 21.5 12.8472 20.8887 12.6895 20.2575L12.0002 17.5C12.6073 17.0439 13 16.3178 13 15.5C13 14.1193 11.8807 13 10.5 13Z" fill="white"/>
</svg>
