<svg width="21" height="24" viewBox="0 0 21 24" fill="none" xmlns="http://www.w3.org/2000/svg">
<rect x="0.75" y="8.75" width="19.5" height="14.5" rx="1.25" stroke="#4762B2" stroke-width="1.5"/>
<path d="M17 8C17 4.13401 13.866 1 10 1C6.13401 1 3 4.13401 3 8" stroke="#4762B2" stroke-width="1.5"/>
<path d="M9.48483 16.6212L9.56526 16.2995L9.30009 16.1003C8.8133 15.7345 8.5 15.1539 8.5 14.5C8.5 13.3954 9.39543 12.5 10.5 12.5C11.6046 12.5 12.5 13.3954 12.5 14.5C12.5 15.1539 12.1867 15.7345 11.6999 16.1003L11.4347 16.2995L11.5152 16.6212L12.2044 19.3788C12.2832 19.6943 12.0446 20 11.7193 20H9.2807C8.95543 20 8.71675 19.6943 8.79562 19.3788L9.48483 16.6212Z" stroke="#4762B2"/>
</svg>
