<svg width="31" height="18" viewBox="0 0 31 18" fill="none" xmlns="http://www.w3.org/2000/svg">
<path d="M15.439 1C8.83857 1 3.97438 5.23972 1.75349 8.11688C1.26502 8.7497 1.29028 9.62452 1.80985 10.2321C4.15299 12.972 9.12133 17 15.439 17C21.7192 17 26.8649 13.0198 29.3621 10.2811C29.9334 9.65449 29.9598 8.71738 29.4197 8.0637C27.0433 5.18779 21.9989 1 15.439 1Z" stroke="#4863B2" stroke-width="1.5"/>
<path d="M10.7561 3.34125C12.0935 2.03016 13.4182 1.78027 15.439 1.78027C19.534 1.78027 22.8537 5.09992 22.8537 9.19491C22.8537 13.2899 19.534 16.6095 15.439 16.6095C11.3441 16.6095 8.02441 13.2899 8.02441 9.19491C8.02441 8.68706 8.07547 8.19113 8.17273 7.71198" stroke="#4863B2" stroke-width="1.5"/>
<path d="M15.439 12.7075C17.3787 12.7075 18.9511 11.135 18.9511 9.1953C18.9511 7.25557 17.3787 5.68311 15.439 5.68311C14.5394 5.68311 13.7189 6.02128 13.0975 6.57742L15.0487 8.80506L12.1266 8.02457C11.9972 8.39075 11.9268 8.7848 11.9268 9.1953C11.9268 11.135 13.4992 12.7075 15.439 12.7075Z" fill="#4A66B4"/>
</svg>
