<svg width="90" height="90" viewBox="0 0 90 90" fill="none" xmlns="http://www.w3.org/2000/svg">
<g opacity="0.5">
<path d="M45 58.3594C44.0298 58.3594 43.2422 59.147 43.2422 60.1172C43.2422 61.0874 44.0298 61.875 45 61.875C45.9702 61.875 46.7578 61.0874 46.7578 60.1172C46.7578 59.147 45.9702 58.3594 45 58.3594Z" fill="#FFA733"/>
<path d="M22.1484 66.9727V79.4531H20.3906C17.4827 79.4531 15.1172 81.8186 15.1172 84.7266V86.4844H13.3594C12.3885 86.4844 11.6016 87.2713 11.6016 88.2422C11.6016 89.2131 12.3885 90 13.3594 90H76.6406C77.6115 90 78.3984 89.2131 78.3984 88.2422C78.3984 87.2713 77.6115 86.4844 76.6406 86.4844H74.8828V84.7266C74.8828 81.8186 72.5173 79.4531 69.6094 79.4531H67.8516V66.9727C67.8516 58.1108 63.4879 49.9363 56.2912 44.9993C63.5999 39.9751 67.8516 31.7203 67.8516 23.0273V10.5469H69.6094C72.5173 10.5469 74.8828 8.18138 74.8828 5.27344V3.51562H76.6406C77.6115 3.51562 78.3984 2.72873 78.3984 1.75781C78.3984 0.786896 77.6115 0 76.6406 0H13.3594C12.3885 0 11.6016 0.786896 11.6016 1.75781C11.6016 2.72873 12.3885 3.51562 13.3594 3.51562H15.1172V5.27344C15.1172 8.18138 17.4827 10.5469 20.3906 10.5469H22.1484V23.0273C22.1484 31.8892 26.5121 40.0637 33.7088 45.0007C26.3576 50.0537 22.1484 58.3312 22.1484 66.9727ZM69.6094 82.9688C70.5789 82.9688 71.3672 83.757 71.3672 84.7266V86.4844H18.6328V84.7266C18.6328 83.757 19.4211 82.9688 20.3906 82.9688H69.6094ZM32.8052 79.4531C33.3332 75.5798 35.799 74.2696 40.521 71.7641L45 69.378L49.479 71.7641C54.201 74.2696 56.6661 75.5798 57.1948 79.4531H32.8052ZM20.3906 7.03125C19.4211 7.03125 18.6328 6.24298 18.6328 5.27344V3.51562H71.3672V5.27344C71.3672 6.24298 70.5789 7.03125 69.6094 7.03125H20.3906ZM37.9173 46.5511C38.4899 46.2456 38.8477 45.6489 38.8477 45C38.8477 44.3511 38.4899 43.7544 37.9173 43.4489C30.3593 39.4176 25.6641 31.5926 25.6641 23.0273V10.5469H64.3359V23.0273C64.3359 31.5685 59.6297 39.4244 52.0827 43.4489C51.5101 43.7544 51.1523 44.3511 51.1523 45C51.1523 45.6489 51.5101 46.2456 52.0827 46.5511C59.6407 50.5824 64.3359 58.4074 64.3359 66.9727V79.4531H60.729C60.0911 73.4203 56.088 71.291 51.1269 68.6584L45.8267 65.8349C45.3097 65.5589 44.6903 65.5589 44.1733 65.8349L38.8731 68.6584C33.912 71.291 29.9082 73.4203 29.271 79.4531H25.6641V66.9727C25.6641 58.4315 30.3703 50.5762 37.9173 46.5511Z" fill="#FFA733"/>
<path d="M43.2424 42.3021V53.0859C43.2424 54.0568 44.0293 54.8437 45.0002 54.8437C45.9711 54.8437 46.758 54.0568 46.758 53.0859V42.3021L50.4302 40.3445C56.5228 37.1008 60.46 30.9107 60.7972 23.9921C60.8356 23.2052 60.3461 22.489 59.599 22.239L53.79 20.2986C52.7875 19.9628 51.7431 19.7932 50.685 19.7932C48.0688 19.7932 45.6086 20.8122 43.7581 22.6627C42.0621 24.3573 39.5977 24.9389 37.3263 24.1795L31.5166 22.2377C30.9659 22.0537 30.3602 22.1532 29.8974 22.5034C29.4346 22.8543 29.1751 23.4105 29.2032 23.99C29.5383 30.8571 33.4323 37.0768 39.5702 40.3445L43.2424 42.3021ZM33.0581 26.4599L36.2118 27.5139C39.7542 28.6969 43.5988 27.7913 46.243 25.149C47.4303 23.9618 49.0075 23.3082 50.685 23.3082C51.3627 23.3082 52.0322 23.4173 52.6749 23.6329L57.1696 25.1339C56.5036 30.2982 53.4357 34.7614 48.7768 37.2422L45.0002 39.2548L41.223 37.2416C36.9685 34.9763 34.0407 31.0569 33.0581 26.4599Z" fill="#FFA733"/>
</g>
</svg>
