<svg width="90" height="90" viewBox="0 0 90 90" fill="none" xmlns="http://www.w3.org/2000/svg">
<g opacity="0.5">
<path d="M76.8197 13.1801C68.3204 4.68088 57.0199 0 45 0C32.9799 0 21.6793 4.68088 13.1801 13.1801C4.6807 21.6795 0 32.9801 0 45C0 57.0199 4.6807 68.3204 13.1801 76.8197C21.6795 85.3191 32.9799 90 45 90C57.0199 90 68.3204 85.3191 76.8197 76.8197C85.3191 68.3204 90 57.0199 90 45C90 32.9801 85.3191 21.6796 76.8197 13.1801ZM45 84.7266C23.0947 84.7266 5.27344 66.9053 5.27344 45C5.27344 23.0947 23.0947 5.27344 45 5.27344C66.9053 5.27344 84.7266 23.0947 84.7266 45C84.7266 66.9053 66.9053 84.7266 45 84.7266Z" fill="#33C942"/>
<path d="M66.4988 30.5611C65.4693 29.5317 63.7997 29.5317 62.7702 30.5612L39.4864 53.8451L27.2297 41.5884C26.2001 40.5588 24.5305 40.5588 23.5008 41.5884C22.4711 42.6179 22.4711 44.2875 23.5008 45.3172L37.6218 59.4382C38.1367 59.9531 38.8115 60.2104 39.4862 60.2104C40.1608 60.2104 40.8358 59.9529 41.3505 59.4382L66.4988 34.2899C67.5285 33.2604 67.5285 31.5908 66.4988 30.5611Z" fill="#33C942"/>
</g>
</svg>
